<svg xmlns="http://www.w3.org/2000/svg" viewBox="0 0 20 20" width="20px" height="20px">
    <g fill="none">
        <circle cx="10" cy="10" r="10" fill="#FFD426"></circle>
        <path fill="#3D474D"
            d="M15.9540103,9.87612523 C15.9846701,10.1217218 16,10.3296801 16,10.5 C16,13.8137085 13.3137085,16.5 10,16.5 C6.6862915,16.5 4,13.8137085 4,10.5 C4,10.3296732 4.01533115,10.121705 4.04599345,9.87609546 C4.10849919,9.37561325 4.53392034,9 5.03829066,9 L14.9617273,9 C15.4661038,9.00001476 15.8915298,9.37563357 15.9540103,9.87612523 Z"></path>
        <path stroke="#3D474D" stroke-linecap="round" stroke-linejoin="round" stroke-width="1.2"
            d="M7.60830537 5.8109394C7.24395841 5.31894388 6.65922587 5 6 5 5.34077413 5 4.75604159 5.31894388 4.39169463 5.8109394M15.6083054 5.8109394C15.2439584 5.31894388 14.6592259 5 14 5 13.3407741 5 12.7560416 5.31894388 12.3916946 5.8109394"></path>
        <path fill="#0AF"
            d="M18.5450721,10.4142136 C17.9592857,11 17.0095382,11 16.4237518,10.4142136 C16.0332275,10.0236893 15.7975252,9.08088023 15.716645,7.58578644 C17.2117388,7.66666667 18.1545478,7.90236893 18.5450721,8.29289322 C19.1308586,8.87867966 19.1308586,9.82842712 18.5450721,10.4142136 Z M1.43933983,10.4142136 C0.853553391,9.82842712 0.853553391,8.87867966 1.43933983,8.29289322 C1.82986412,7.90236893 2.77267316,7.66666667 4.26776695,7.58578644 C4.18688672,9.08088023 3.95118446,10.0236893 3.56066017,10.4142136 C2.97487373,11 2.02512627,11 1.43933983,10.4142136 Z"></path>
        <path fill="#FF4019"
            d="M10,12 C12.1020545,12 13.9877033,12.5294533 15.2708236,13.3677183 C14.2536655,15.2342325 12.2746507,16.5 10,16.5 C7.72575208,16.5 5.74703533,15.2346807 4.72942993,13.3696222 C6.01130713,12.5297312 7.89739388,12 10,12 Z"></path>
    </g>
</svg>