<svg xmlns="http://www.w3.org/2000/svg" viewBox="0 0 20 20" width="20px" height="20px">
    <g>
        <circle cx="10" cy="10" r="10" fill="rgb(0, 170, 255)"></circle>
        <path fill="#FFF"
            d="M13.3453109,8.81474103 C13.4677486,9.03464094 13.5375,9.28789722 13.5375,9.55744481 C13.5375,10.0802853 13.2750658,10.5418311 12.8747377,10.8175419 C13.0099049,11.0455718 13.0875,11.3117481 13.0875,11.5960478 C13.0875,12.4404648 12.4029648,13.125 11.5585478,13.125 L11.4664522,13.125 C11.4567934,13.125 11.4471556,13.125 11.4375394,13.1247321 C11.0875,13.125 10.2125,13.125 8.8125,13.125 C6.7125,13.125 6.7125,12.1056985 5.1375,12.1056985 C3.5625,12.1056985 3.5625,5.98988961 5.1375,5.98988961 L5.2145866,5.98988961 C5.83064715,5.98988428 6.41445373,5.71449167 6.80624774,5.2390676 L7.81666521,4.01297233 C8.12104725,3.64361868 8.2875,3.17990405 8.2875,2.70129091 L8.2875,1.45095094 C8.28752932,1.1661953 8.51836937,0.935355246 8.80312501,0.935355246 C8.83386335,0.935355246 8.86454012,0.938104033 8.89478879,0.943568765 C9.8899296,1.12335113 10.3875,1.7861566 10.3875,2.93198516 C10.3875,3.6381154 10.3402584,4.25252476 10.2457751,4.77521323 C10.1444787,5.33566882 10.516688,5.87213366 11.0771412,5.97344342 C11.1376741,5.9843856 11.1990647,5.98988961 11.2605787,5.98988961 L12.4875,5.98988961 L12.5335478,5.98988961 C13.3779648,5.98988961 14.0625,6.67442484 14.0625,7.51884184 C14.0625,8.0650226 13.7761121,8.54431389 13.3453109,8.81474103 L13.3453109,8.81474103 Z M2.56465819,5.48023887 L3.0375,5.48023887 C3.37595098,5.48023887 3.65031971,5.7546076 3.65031971,6.09305858 C3.65031971,6.18124212 3.63128808,6.26838699 3.59451414,6.34853694 C3.22317138,7.15816783 3.0375,8.0579202 3.0375,9.04779406 C3.0375,10.0376679 3.22317138,10.9374203 3.59451414,11.7470512 C3.735624,12.0546826 3.60061931,12.4184547 3.29298314,12.5595541 C3.21282841,12.5963176 3.12568354,12.6153493 3.0375,12.6153493 L2.56468099,12.6153493 C2.18494503,12.6153493 1.83593179,12.4066887 1.6562134,12.0721731 C1.17707113,11.1803302 0.9375,10.1722038 0.9375,9.04779406 C0.9375,7.92338449 1.17707104,6.91525832 1.65621313,6.02341553 C1.83593531,5.68891751 2.18493594,5.48023887 2.56465819,5.48023887 Z"
            transform="translate(3 2)"></path>
    </g>
</svg>