<svg xmlns="http://www.w3.org/2000/svg" viewBox="0 0 24 24" width="17px" height="17px">
    <path fill="#95aac9"
        d="M18,3 C20.6887547,3 22.8818181,5.12230671 22.9953805,7.78311038 L23,8 C23,8.55228475 22.5522847,9 22,9 C21.4871642,9 21.0644928,8.61395981 21.0067277,8.11662113 L21,8 C21,6.34314575 19.6568542,5 18,5 L6,5 C4.34314575,5 3,6.34314575 3,8 L3,16 C3,17.6568542 4.34314575,19 6,19 L10,19 L10,21 L12,19 L19,19 C19.5522847,19 20,19.4477153 20,20 C20,20.5522847 19.5522847,21 19,21 L13,21 L9.62469505,23.700244 C9.19343311,24.0452535 8.56414074,23.9753321 8.21913119,23.5440702 C8.07728075,23.3667572 8,23.1464466 8,22.9193752 L8,21 L6,21 C3.23857625,21 1,18.7614237 1,16 L1,8 C1,5.23857625 3.23857625,3 6,3 L18,3 Z M17.4142136,9 C17.7746975,9.36048396 17.8024271,9.92771502 17.4974022,10.3200062 L17.4142136,10.4142136 L16.8282136,10.9991068 L20,11 C21.6568542,11 23,12.3431458 23,14 L23,20 C23,20.5522847 22.5522847,21 22,21 C21.4477153,21 21,20.5522847 21,20 L21,14 C21,13.4477153 20.5522847,13 20,13 L16.8272136,12.9991068 L17.4142136,13.5857864 C17.8047379,13.9763107 17.8047379,14.6094757 17.4142136,15 C17.0537296,15.360484 16.4864985,15.3882135 16.0942073,15.0831886 L16,15 L13.7071068,12.7071068 C13.3466228,12.3466228 13.3188933,11.7793918 13.6239182,11.3871006 L13.7071068,11.2928932 L16,9 C16.3905243,8.60947571 17.0236893,8.60947571 17.4142136,9 Z M11,13 C11.5522847,13 12,13.4477153 12,14 C12,14.5522847 11.5522847,15 11,15 L7,15 C6.44771525,15 6,14.5522847 6,14 C6,13.4477153 6.44771525,13 7,13 L11,13 Z M11,9 C11.5522847,9 12,9.44771525 12,10 C12,10.5522847 11.5522847,11 11,11 L7,11 C6.44771525,11 6,10.5522847 6,10 C6,9.44771525 6.44771525,9 7,9 L11,9 Z"></path>
</svg>