<svg xmlns="http://www.w3.org/2000/svg" xmlns:xlink="http://www.w3.org/1999/xlink"
    viewBox="0 0 20 20" width="20px" height="20px">
    <defs>
        <path id="reactionshipit-a"
            d="M7.4375,0.744613509 C9.01198291,1.77062712 11.6875,5.7528944 11.6875,10.3286066 C11.6875,13.3127668 10.8781849,15.7905345 9.66409119,17.1531664 L9.65357135,17.164253 C8.97034362,17.383654 8.25667656,17.4999287 7.5225,17.4999287 C6.70092146,17.4999287 5.90502632,17.3543217 5.14872968,17.081533 C3.96930503,15.7054336 3.1875,13.2616097 3.1875,10.3286066 C3.1875,5.7528944 5.86301709,1.77062712 7.4375,0.744613509 Z"></path>
        <path id="reactionshipit-c"
            d="M1.59375,8.25588141 C2.65625,6.56512666 3.1875,4.95981639 3.1875,3.43995059 C3.1875,1.16015189 2.47395382,4.02344824e-13 1.59375,4.02344824e-13 C0.71354618,4.02344824e-13 -9.09938791e-13,1.16015189 -9.09938791e-13,3.43995059 C-9.09938791e-13,4.95981639 0.53125,6.56512666 1.59375,8.25588141 Z"></path>
    </defs>
    <g fill="rgb(255, 212, 38);" transform="rotate(45 11.94 14.83)">
        <g transform="translate(.04 13.58)">
            <polygon fill="#FFD426" points="0 2.676 7.398 11.602 14.831 2.676 7.416 0" opacity="0.4"></polygon>
            <path fill="#FA0"
                d="M7.3978323,11.6061467 C7.3978323,11.6061467 10.0540823,8.9744218 10.0540823,6.34269689 C10.0540823,4.88923536 8.86483866,3.71097199 7.3978323,3.71097199 C5.93082593,3.71097199 4.7415823,4.88923536 4.7415823,6.34269689 C4.7415823,8.9744218 7.3978323,11.6061467 7.3978323,11.6061467 Z"></path>
            <path fill="#FFD426"
                d="M7.3978323,9.85166343 C7.3978323,9.85166343 8.9915823,7.80476628 8.9915823,5.75786914 C8.9915823,4.62739906 8.27803612,3.71097199 7.3978323,3.71097199 C6.51762848,3.71097199 5.8040823,4.62739906 5.8040823,5.75786914 C5.8040823,7.80476628 7.3978323,9.85166343 7.3978323,9.85166343 Z"></path>
            <path fill="#FFF2B3"
                d="M7.3978323,8.09718016 C7.3978323,8.09718016 8.4603323,6.63511077 8.4603323,5.17304138 C8.4603323,4.36556275 7.98463484,3.71097199 7.3978323,3.71097199 C6.81102975,3.71097199 6.3353323,4.36556275 6.3353323,5.17304138 C6.3353323,6.63511077 7.3978323,8.09718016 7.3978323,8.09718016 Z"></path>
        </g>
        <path fill="#657680" stroke="#3D474D" stroke-width="0.5"
            d="M7.27369603,2.68075309 C6.06952267,3.72516663 4,7.76959437 4,12.43662 C4,14.9768798 4.43803984,17.1545022 5.28195324,18.7431579 C6.00395734,18.9485773 6.75599017,19.0571135 7.52857143,19.0571135 C8.22460407,19.0571135 8.90395742,18.9690149 9.7230009,18.6680764 C10.424754,17.2142549 10.875,15.0117872 10.875,12.43662 C10.875,7.76959437 8.80547733,3.72516663 7.27369603,2.68075309 Z"></path>
        <path fill="#E6540B" stroke="#BF4000" stroke-linecap="round" stroke-linejoin="round"
            stroke-width="0.789"
            d="M7.4375,9.123313 C11.5451178,9.123313 14.875,12.5010013 14.875,16.6675911 C14.875,17.0234613 14.8507087,17.3735766 14.8037163,17.7163238 C12.8141641,16.177701 10.3273256,15.2640045 7.62919891,15.2640045 C4.77445245,15.2640045 2.1562357,16.2868555 0.114201656,17.9895012 C0.0390601373,17.5608703 0,17.1188577 0,16.6675911 C0,12.5010013 3.32988217,9.123313 7.4375,9.123313 Z"></path>
        <mask id="reactionshipit-b" fill="#fff">
            <use xlink:href="#reactionshipit-a"></use>
        </mask>
        <path stroke="#BF4000" stroke-width="0.789"
            d="M7.22198929,0.413898665 C5.5931757,1.47531692 2.79276316,5.58080008 2.79276316,10.3286066 C2.79276316,13.3792659 3.62472378,15.9099672 5.01479784,17.4528542 C5.81376592,17.741034 6.65458912,17.8946656 7.5225,17.8946656 C8.29934057,17.8946656 9.05448371,17.771652 9.95881325,17.4157613 C11.2196227,16.0006981 12.0822368,13.43442 12.0822368,10.3286066 C12.0822368,5.58080008 9.2818243,1.47531692 7.22198929,0.413898665 Z"></path>
        <g mask="url(#reactionshipit-b)">
            <g transform="translate(2.026)">
                <path fill="#FF8126" stroke="#BF4000" stroke-linecap="round" stroke-linejoin="round"
                    stroke-width="0.789"
                    d="M5.19604801,0.413898665 C3.56723441,1.47531692 0.766821875,5.58080008 0.766821875,10.3286066 C0.766821875,13.3792659 1.5987825,15.9099672 2.98885656,17.4528542 C3.78782463,17.741034 4.62864784,17.8946656 5.49655872,17.8946656 C6.27339928,17.8946656 7.02854243,17.771652 7.93287197,17.4157613 C9.19368144,16.0006981 10.0562956,13.43442 10.0562956,10.3286066 C10.0562956,5.58080008 7.25588302,1.47531692 5.19604801,0.413898665 Z"></path>
                <rect width="10.625" height="6.375" x="0.099" y="3.932" fill="#FFF"></rect>
                <circle cx="5.412" cy="7.12" r="2.125" fill="#0AF" stroke="#BF4000"
                    stroke-width="0.5"></circle>
                <circle cx="4.349" cy="6.057" r="1.063" fill="#FFF"></circle>
                <circle cx="6.474" cy="8.182" r="1.063" fill="#FFF"></circle>
            </g>
        </g>
        <g mask="url(#reactionshipit-b)">
            <g transform="translate(5.844 10.79)">
                <mask id="reactionshipit-d" fill="#fff">
                    <use xlink:href="#reactionshipit-c"></use>
                </mask>
                <use fill="#E6540B" stroke="#BF4000" stroke-linecap="round" stroke-linejoin="round"
                    stroke-width="0.789" xlink:href="#reactionshipit-c"></use>
                <path fill="#F93"
                    d="M1.20582235,5.39744758 C1.74643883,4.53716534 2.01674707,3.72035857 2.01674707,2.94702728 C2.01674707,1.78703034 1.65368371,1.19672706 1.20582235,1.19672706 C0.757960992,1.19672706 0.394897627,1.78703034 0.394897627,2.94702728 C0.394897627,3.72035857 0.665205868,4.53716534 1.20582235,5.39744758 Z"
                    mask="url(#reactionshipit-d)"></path>
            </g>
        </g>
    </g>
</svg>