<svg xmlns="http://www.w3.org/2000/svg" viewBox="0 0 20 20" width="20px" height="20px">
    <g fill="none">
        <circle cx="10" cy="10" r="10" fill="#FFD426"></circle>
        <path fill="#3D474D"
            d="M5.5,7 C6.32842712,7 7,7.67157288 7,8.5 C7,9.32842712 6.32842712,10 5.5,10 C4.67157288,10 4,9.32842712 4,8.5 C4,7.67157288 4.67157288,7 5.5,7 Z M14.5,7 C15.3284271,7 16,7.67157288 16,8.5 C16,9.32842712 15.3284271,10 14.5,10 C13.6715729,10 13,9.32842712 13,8.5 C13,7.67157288 13.6715729,7 14.5,7 Z M12.6027231,14.5620934 C12.8492333,14.8949682 12.7792209,15.3646525 12.4463462,15.6111627 C12.1134714,15.8576728 11.6437871,15.7876605 11.3972769,15.4547858 C11.071004,15.0142034 10.5582005,14.75 10,14.75 C9.44179951,14.75 8.92899604,15.0142034 8.60272307,15.4547858 C8.35621289,15.7876605 7.88652859,15.8576728 7.55365383,15.6111627 C7.22077907,15.3646525 7.15076675,14.8949682 7.39727693,14.5620934 C8.00349615,13.743486 8.96132375,13.25 10,13.25 C11.0386762,13.25 11.9965039,13.743486 12.6027231,14.5620934 Z"></path>
    </g>
</svg>